<svg width="24" height="24" viewBox="0 0 24 24" fill="none" xmlns="http://www.w3.org/2000/svg">
<g id="circum:calculator-1">
<path id="Vector" d="M16.5 21.937H7.5C6.83696 21.937 6.20107 21.6736 5.73223 21.2048C5.26339 20.7359 5 20.1 5 19.437V4.56299C5 3.89995 5.26339 3.26406 5.73223 2.79522C6.20107 2.32638 6.83696 2.06299 7.5 2.06299H16.5C17.163 2.06299 17.7989 2.32638 18.2678 2.79522C18.7366 3.26406 19 3.89995 19 4.56299V19.437C19 20.1 18.7366 20.7359 18.2678 21.2048C17.7989 21.6736 17.163 21.937 16.5 21.937ZM7.5 3.06299C7.10218 3.06299 6.72064 3.22102 6.43934 3.50233C6.15804 3.78363 6 4.16516 6 4.56299V19.437C6 19.8348 6.15804 20.2163 6.43934 20.4976C6.72064 20.779 7.10218 20.937 7.5 20.937H16.5C16.8978 20.937 17.2794 20.779 17.5607 20.4976C17.842 20.2163 18 19.8348 18 19.437V4.56299C18 4.16516 17.842 3.78363 17.5607 3.50233C17.2794 3.22102 16.8978 3.06299 16.5 3.06299H7.5Z" fill="#344054"/>
<path id="Vector_2" d="M14.5 9.75699H9.5C9.10218 9.75699 8.72064 9.59895 8.43934 9.31765C8.15804 9.03634 8 8.65481 8 8.25699V6.56299C8 6.16516 8.15804 5.78363 8.43934 5.50233C8.72064 5.22102 9.10218 5.06299 9.5 5.06299H14.5C14.8978 5.06299 15.2794 5.22102 15.5607 5.50233C15.842 5.78363 16 6.16516 16 6.56299V8.25699C16 8.65481 15.842 9.03634 15.5607 9.31765C15.2794 9.59895 14.8978 9.75699 14.5 9.75699ZM9.5 6.06299C9.36739 6.06299 9.24021 6.11567 9.14645 6.20943C9.05268 6.3032 9 6.43038 9 6.56299V8.25699C9 8.3896 9.05268 8.51677 9.14645 8.61054C9.24021 8.70431 9.36739 8.75699 9.5 8.75699H14.5C14.6326 8.75699 14.7598 8.70431 14.8536 8.61054C14.9473 8.51677 15 8.3896 15 8.25699V6.56299C15 6.43038 14.9473 6.3032 14.8536 6.20943C14.7598 6.11567 14.6326 6.06299 14.5 6.06299H9.5Z" fill="#344054"/>
<path id="Vector_3" d="M12 12.2581C12.4142 12.2581 12.75 11.9223 12.75 11.5081C12.75 11.0938 12.4142 10.7581 12 10.7581C11.5858 10.7581 11.25 11.0938 11.25 11.5081C11.25 11.9223 11.5858 12.2581 12 12.2581Z" fill="#344054"/>
<path id="Vector_4" d="M15.25 12.2581C15.6642 12.2581 16 11.9223 16 11.5081C16 11.0938 15.6642 10.7581 15.25 10.7581C14.8358 10.7581 14.5 11.0938 14.5 11.5081C14.5 11.9223 14.8358 12.2581 15.25 12.2581Z" fill="#344054"/>
<path id="Vector_5" d="M8.75 12.2581C9.16421 12.2581 9.5 11.9223 9.5 11.5081C9.5 11.0938 9.16421 10.7581 8.75 10.7581C8.33579 10.7581 8 11.0938 8 11.5081C8 11.9223 8.33579 12.2581 8.75 12.2581Z" fill="#344054"/>
<path id="Vector_6" d="M12 15.5979C12.4142 15.5979 12.75 15.2621 12.75 14.8479C12.75 14.4337 12.4142 14.0979 12 14.0979C11.5858 14.0979 11.25 14.4337 11.25 14.8479C11.25 15.2621 11.5858 15.5979 12 15.5979Z" fill="#344054"/>
<path id="Vector_7" d="M15.25 15.5979C15.6642 15.5979 16 15.2621 16 14.8479C16 14.4337 15.6642 14.0979 15.25 14.0979C14.8358 14.0979 14.5 14.4337 14.5 14.8479C14.5 15.2621 14.8358 15.5979 15.25 15.5979Z" fill="#344054"/>
<path id="Vector_8" d="M8.75 15.5979C9.16421 15.5979 9.5 15.2621 9.5 14.8479C9.5 14.4337 9.16421 14.0979 8.75 14.0979C8.33579 14.0979 8 14.4337 8 14.8479C8 15.2621 8.33579 15.5979 8.75 15.5979Z" fill="#344054"/>
<path id="Vector_9" d="M15.25 18.937C15.6642 18.937 16 18.6012 16 18.187C16 17.7728 15.6642 17.437 15.25 17.437C14.8358 17.437 14.5 17.7728 14.5 18.187C14.5 18.6012 14.8358 18.937 15.25 18.937Z" fill="#344054"/>
<path id="Vector_10" d="M12.248 18.687H8.5C8.36739 18.687 8.24021 18.6343 8.14645 18.5406C8.05268 18.4468 8 18.3196 8 18.187C8 18.0544 8.05268 17.9272 8.14645 17.8335C8.24021 17.7397 8.36739 17.687 8.5 17.687H12.244C12.3766 17.687 12.5038 17.7397 12.5976 17.8335C12.6913 17.9272 12.744 18.0544 12.744 18.187C12.744 18.3196 12.6913 18.4468 12.5976 18.5406C12.5038 18.6343 12.3766 18.687 12.244 18.687H12.248Z" fill="#344054"/>
</g>
</svg>
