<svg width="24" height="24" viewBox="0 0 24 24" fill="none" xmlns="http://www.w3.org/2000/svg">
<g id="material-symbols-light:history">
<path id="Vector" d="M11.9623 20C9.93094 20 8.16061 19.3367 6.65127 18.01C5.14194 16.6847 4.26827 15.0147 4.03027 13H5.04127C5.31327 14.72 6.09694 16.15 7.39227 17.29C8.68894 18.43 10.2123 19 11.9623 19C13.9123 19 15.5663 18.321 16.9243 16.963C18.2823 15.605 18.9616 13.9507 18.9623 12C18.9623 10.05 18.2829 8.39567 16.9243 7.037C15.5656 5.67833 13.9116 4.99933 11.9623 5C10.9276 5 9.95494 5.21867 9.04427 5.656C8.13427 6.09333 7.33094 6.69533 6.63427 7.462H9.11527V8.462H4.96227V4.308H5.96227V6.696C6.73561 5.84733 7.64161 5.186 8.68027 4.712C9.71894 4.23733 10.8129 4 11.9623 4C13.0709 4 14.1103 4.20867 15.0803 4.626C16.0503 5.04333 16.8976 5.61433 17.6223 6.339C18.3469 7.06367 18.9183 7.91133 19.3363 8.882C19.7536 9.852 19.9623 10.8913 19.9623 12C19.9623 13.1087 19.7536 14.148 19.3363 15.118C18.9189 16.088 18.3476 16.9357 17.6223 17.661C16.8976 18.3857 16.0503 18.9567 15.0803 19.374C14.1103 19.7913 13.0709 20 11.9623 20ZM15.1653 15.854L11.5193 12.208V7H12.5193V11.792L15.8733 15.146L15.1653 15.854Z" fill="#344054"/>
</g>
</svg>
