<svg width="22" height="22" viewBox="0 0 22 22" fill="none" xmlns="http://www.w3.org/2000/svg">
<path d="M11 7L17 4L11 1V11" stroke="#FF7F50" stroke-width="1.33333" stroke-linecap="round" stroke-linejoin="round"/>
<path d="M7.00011 10.9902L1.50011 14.1302C1.34621 14.2175 1.21821 14.3439 1.12915 14.4968C1.04009 14.6496 0.993164 14.8233 0.993164 15.0002C0.993164 15.1771 1.04009 15.3509 1.12915 15.5037C1.21821 15.6565 1.34621 15.783 1.50011 15.8702L10.0001 20.7302C10.3042 20.9058 10.649 20.9982 11.0001 20.9982C11.3512 20.9982 11.6961 20.9058 12.0001 20.7302L20.5001 15.8702C20.654 15.783 20.782 15.6565 20.8711 15.5037C20.9601 15.3509 21.0071 15.1771 21.0071 15.0002C21.0071 14.8233 20.9601 14.6496 20.8711 14.4968C20.782 14.3439 20.654 14.2175 20.5001 14.1302L15.0001 11.0002M5.49011 11.8502L16.5101 18.1502M16.5101 11.8502L5.50011 18.1502" stroke="#FF7F50" stroke-width="1.33333" stroke-linecap="round" stroke-linejoin="round"/>
</svg>
