<svg width="16" height="16" viewBox="0 0 16 16" fill="none" xmlns="http://www.w3.org/2000/svg">
<g id="vuesax/outline/location-minus">
<g id="location-minus">
<path id="Vector" d="M9.83329 7.83334H6.16663C5.89329 7.83334 5.66663 7.60668 5.66663 7.33334C5.66663 7.06001 5.89329 6.83334 6.16663 6.83334H9.83329C10.1066 6.83334 10.3333 7.06001 10.3333 7.33334C10.3333 7.60668 10.1066 7.83334 9.83329 7.83334Z" fill="#344054"/>
<path id="Vector_2" d="M8 15.1733C7.01333 15.1733 6.01999 14.8 5.24666 14.06C3.28 12.1667 1.10666 9.14668 1.92666 5.55334C2.66666 2.29334 5.51333 0.833344 8 0.833344C8 0.833344 8 0.833344 8.00666 0.833344C10.4933 0.833344 13.34 2.29334 14.08 5.56001C14.8933 9.15334 12.72 12.1667 10.7533 14.06C9.97999 14.8 8.98666 15.1733 8 15.1733ZM8 1.83334C6.06 1.83334 3.56666 2.86668 2.90666 5.77334C2.18666 8.91334 4.16 11.62 5.94666 13.3333C7.1 14.4467 8.90666 14.4467 10.06 13.3333C11.84 11.62 13.8133 8.91334 13.1067 5.77334C12.44 2.86668 9.93999 1.83334 8 1.83334Z" fill="#344054"/>
</g>
</g>
</svg>
