<svg width="140" height="140" viewBox="0 0 140 140" fill="none" xmlns="http://www.w3.org/2000/svg">
<g id="vuesax/linear/gallery-favorite">
<g id="gallery-favorite">
<path id="Vector" d="M52.4997 58.3333C58.943 58.3333 64.1663 53.11 64.1663 46.6667C64.1663 40.2233 58.943 35 52.4997 35C46.0564 35 40.833 40.2233 40.833 46.6667C40.833 53.11 46.0564 58.3333 52.4997 58.3333Z" stroke="#344054" stroke-opacity="0.5" stroke-width="2" stroke-linecap="round" stroke-linejoin="round"/>
<path id="Vector_2" d="M70.0003 11.6667H52.5003C23.3337 11.6667 11.667 23.3334 11.667 52.5V87.5C11.667 116.667 23.3337 128.333 52.5003 128.333H87.5003C116.667 128.333 128.334 116.667 128.334 87.5V64.1667" stroke="#344054" stroke-opacity="0.5" stroke-width="2" stroke-linecap="round" stroke-linejoin="round"/>
<path id="Vector_3" d="M94.033 29.8083C92.108 23.7417 94.383 16.2167 100.683 14.175C104.008 13.125 108.15 14 110.483 17.2083C112.7 13.8833 116.958 13.0667 120.283 14.175C126.641 16.2167 128.916 23.7417 126.991 29.8083C123.958 39.375 113.458 44.3917 110.541 44.3917C107.566 44.3917 97.1246 39.4917 94.033 29.8083Z" stroke="#344054" stroke-opacity="0.5" stroke-width="2" stroke-linecap="round" stroke-linejoin="round"/>
<path id="Vector_4" d="M15.5752 110.542L44.3335 91.2333C48.9419 88.1417 55.5919 88.4917 59.7335 92.05L61.6585 93.7417C66.2085 97.65 73.5585 97.65 78.1085 93.7417L102.375 72.9167C106.925 69.0083 114.275 69.0083 118.825 72.9167L128.334 81.0833" stroke="#344054" stroke-opacity="0.5" stroke-width="2" stroke-linecap="round" stroke-linejoin="round"/>
</g>
</g>
</svg>
