<svg width="17" height="16" viewBox="0 0 17 16" fill="none" xmlns="http://www.w3.org/2000/svg">
<g id="vuesax/outline/money-recive">
<g id="money-recive">
<path id="Vector" d="M8.98397 10.8333H7.73065C6.84399 10.8333 6.11731 10.0867 6.11731 9.16667C6.11731 8.89333 6.34398 8.66667 6.61731 8.66667C6.89064 8.66667 7.11731 8.89333 7.11731 9.16667C7.11731 9.53333 7.39065 9.83333 7.73065 9.83333H8.98397C9.24397 9.83333 9.45064 9.6 9.45064 9.31333C9.45064 8.95333 9.35065 8.9 9.12398 8.82L7.11731 8.12C6.69064 7.97333 6.11731 7.66 6.11731 6.68C6.11731 5.84667 6.77732 5.16 7.58398 5.16H8.8373C9.72397 5.16 10.4506 5.90667 10.4506 6.82667C10.4506 7.1 10.224 7.32667 9.95064 7.32667C9.67731 7.32667 9.45064 7.1 9.45064 6.82667C9.45064 6.46 9.1773 6.16 8.8373 6.16H7.58398C7.32398 6.16 7.11731 6.39334 7.11731 6.68C7.11731 7.04 7.2173 7.09333 7.44397 7.17333L9.45064 7.87333C9.87731 8.02 10.4506 8.33333 10.4506 9.31333C10.4506 10.1533 9.79063 10.8333 8.98397 10.8333Z" fill="#344054"/>
<path id="Vector_2" d="M8.28394 11.5C8.0106 11.5 7.78394 11.2733 7.78394 11V5C7.78394 4.72667 8.0106 4.5 8.28394 4.5C8.55727 4.5 8.78394 4.72667 8.78394 5V11C8.78394 11.2733 8.55727 11.5 8.28394 11.5Z" fill="#344054"/>
<path id="Vector_3" d="M8.28398 15.1667C4.33064 15.1667 1.11731 11.9533 1.11731 8.00001C1.11731 4.04668 4.33064 0.833344 8.28398 0.833344C8.55731 0.833344 8.78398 1.06001 8.78398 1.33334C8.78398 1.60668 8.55731 1.83334 8.28398 1.83334C4.88398 1.83334 2.11731 4.60001 2.11731 8.00001C2.11731 11.4 4.88398 14.1667 8.28398 14.1667C11.684 14.1667 14.4506 11.4 14.4506 8.00001C14.4506 7.72668 14.6773 7.50001 14.9506 7.50001C15.224 7.50001 15.4506 7.72668 15.4506 8.00001C15.4506 11.9533 12.2373 15.1667 8.28398 15.1667Z" fill="#344054"/>
<path id="Vector_4" d="M14.284 5.16667H11.6173C11.344 5.16667 11.1173 4.94 11.1173 4.66667V2C11.1173 1.72667 11.344 1.5 11.6173 1.5C11.8906 1.5 12.1173 1.72667 12.1173 2V4.16667H14.284C14.5573 4.16667 14.784 4.39333 14.784 4.66667C14.784 4.94 14.5573 5.16667 14.284 5.16667Z" fill="#344054"/>
<path id="Vector_5" d="M11.6172 5.16666C11.4906 5.16666 11.3639 5.11999 11.2639 5.01999C11.0706 4.82666 11.0706 4.50666 11.2639 4.31332L14.5972 0.979991C14.7906 0.786658 15.1106 0.786658 15.3039 0.979991C15.4972 1.17332 15.4972 1.49332 15.3039 1.68666L11.9706 5.01999C11.8706 5.11999 11.7439 5.16666 11.6172 5.16666Z" fill="#344054"/>
</g>
</g>
</svg>
