<svg width="17" height="16" viewBox="0 0 17 16" fill="none" xmlns="http://www.w3.org/2000/svg">
<g id="fluent:building-20-regular">
<path id="Vector" d="M6.04192 5.20001C6.20105 5.20001 6.35366 5.13679 6.46618 5.02427C6.57871 4.91175 6.64192 4.75914 6.64192 4.60001C6.64192 4.44088 6.57871 4.28826 6.46618 4.17574C6.35366 4.06322 6.20105 4.00001 6.04192 4.00001C5.88279 4.00001 5.73018 4.06322 5.61765 4.17574C5.50513 4.28826 5.44192 4.44088 5.44192 4.60001C5.44192 4.75914 5.50513 4.91175 5.61765 5.02427C5.73018 5.13679 5.88279 5.20001 6.04192 5.20001ZM6.64192 7.00001C6.64192 7.15914 6.57871 7.31175 6.46618 7.42427C6.35366 7.53679 6.20105 7.60001 6.04192 7.60001C5.88279 7.60001 5.73018 7.53679 5.61765 7.42427C5.50513 7.31175 5.44192 7.15914 5.44192 7.00001C5.44192 6.84088 5.50513 6.68826 5.61765 6.57574C5.73018 6.46322 5.88279 6.40001 6.04192 6.40001C6.20105 6.40001 6.35366 6.46322 6.46618 6.57574C6.57871 6.68826 6.64192 6.84088 6.64192 7.00001ZM6.04192 10C6.12071 10 6.19873 9.98449 6.27153 9.95433C6.34432 9.92418 6.41047 9.87998 6.46618 9.82427C6.5219 9.76855 6.56609 9.70241 6.59625 9.62962C6.6264 9.55682 6.64192 9.4788 6.64192 9.40001C6.64192 9.32121 6.6264 9.24319 6.59625 9.1704C6.56609 9.0976 6.5219 9.03146 6.46618 8.97574C6.41047 8.92003 6.34432 8.87583 6.27153 8.84568C6.19873 8.81553 6.12071 8.80001 6.04192 8.80001C5.88279 8.80001 5.73018 8.86322 5.61765 8.97574C5.50513 9.08826 5.44192 9.24088 5.44192 9.40001C5.44192 9.55914 5.50513 9.71175 5.61765 9.82427C5.73018 9.93679 5.88279 10 6.04192 10ZM9.04192 4.60001C9.04192 4.75914 8.9787 4.91175 8.86618 5.02427C8.75366 5.13679 8.60105 5.20001 8.44192 5.20001C8.28279 5.20001 8.13018 5.13679 8.01766 5.02427C7.90513 4.91175 7.84192 4.75914 7.84192 4.60001C7.84192 4.44088 7.90513 4.28826 8.01766 4.17574C8.13018 4.06322 8.28279 4.00001 8.44192 4.00001C8.60105 4.00001 8.75366 4.06322 8.86618 4.17574C8.9787 4.28826 9.04192 4.44088 9.04192 4.60001ZM8.44192 7.60001C8.60105 7.60001 8.75366 7.53679 8.86618 7.42427C8.9787 7.31175 9.04192 7.15914 9.04192 7.00001C9.04192 6.84088 8.9787 6.68826 8.86618 6.57574C8.75366 6.46322 8.60105 6.40001 8.44192 6.40001C8.28279 6.40001 8.13018 6.46322 8.01766 6.57574C7.90513 6.68826 7.84192 6.84088 7.84192 7.00001C7.84192 7.15914 7.90513 7.31175 8.01766 7.42427C8.13018 7.53679 8.28279 7.60001 8.44192 7.60001ZM9.04192 9.40001C9.04192 9.55914 8.9787 9.71175 8.86618 9.82427C8.75366 9.93679 8.60105 10 8.44192 10C8.28279 10 8.13018 9.93679 8.01766 9.82427C7.90513 9.71175 7.84192 9.55914 7.84192 9.40001C7.84192 9.24088 7.90513 9.08826 8.01766 8.97574C8.13018 8.86322 8.28279 8.80001 8.44192 8.80001C8.60105 8.80001 8.75366 8.86322 8.86618 8.97574C8.9787 9.08826 9.04192 9.24088 9.04192 9.40001ZM10.8419 10C10.9207 10 10.9987 9.98449 11.0715 9.95433C11.1443 9.92418 11.2105 9.87998 11.2662 9.82427C11.3219 9.76855 11.3661 9.70241 11.3962 9.62962C11.4264 9.55682 11.4419 9.4788 11.4419 9.40001C11.4419 9.32121 11.4264 9.24319 11.3962 9.1704C11.3661 9.0976 11.3219 9.03146 11.2662 8.97574C11.2105 8.92003 11.1443 8.87583 11.0715 8.84568C10.9987 8.81553 10.9207 8.80001 10.8419 8.80001C10.6828 8.80001 10.5302 8.86322 10.4177 8.97574C10.3051 9.08826 10.2419 9.24088 10.2419 9.40001C10.2419 9.55914 10.3051 9.71175 10.4177 9.82427C10.5302 9.93679 10.6828 10 10.8419 10ZM4.24192 14.4C4.13583 14.4 4.03409 14.3579 3.95908 14.2828C3.88406 14.2078 3.84192 14.1061 3.84192 14V2.80001C3.84192 2.48175 3.96835 2.17652 4.19339 1.95148C4.41843 1.72643 4.72366 1.60001 5.04192 1.60001H9.84192C10.1602 1.60001 10.4654 1.72643 10.6904 1.95148C10.9155 2.17652 11.0419 2.48175 11.0419 2.80001V6.40001H12.2419C12.5602 6.40001 12.8654 6.52643 13.0904 6.75148C13.3155 6.97652 13.4419 7.28175 13.4419 7.60001V14C13.4419 14.1061 13.3998 14.2078 13.3248 14.2828C13.2497 14.3579 13.148 14.4 13.0419 14.4H4.24192ZM4.64192 2.80001V13.6H6.24192V11.6C6.24192 11.4939 6.28406 11.3922 6.35908 11.3172C6.43409 11.2421 6.53583 11.2 6.64192 11.2H10.6419C10.748 11.2 10.8497 11.2421 10.9248 11.3172C10.9998 11.3922 11.0419 11.4939 11.0419 11.6V13.6H12.6419V7.60001C12.6419 7.49392 12.5998 7.39218 12.5248 7.31716C12.4497 7.24215 12.348 7.20001 12.2419 7.20001H10.6419C10.5358 7.20001 10.4341 7.15786 10.3591 7.08285C10.2841 7.00783 10.2419 6.90609 10.2419 6.80001V2.80001C10.2419 2.69392 10.1998 2.59218 10.1248 2.51716C10.0497 2.44215 9.94801 2.40001 9.84192 2.40001H5.04192C4.93583 2.40001 4.83409 2.44215 4.75908 2.51716C4.68406 2.59218 4.64192 2.69392 4.64192 2.80001ZM10.2419 12H9.04192V13.6H10.2419V12ZM8.24192 12H7.04192V13.6H8.24192V12Z" fill="#344054"/>
</g>
</svg>
