<svg width="16" height="16" viewBox="0 0 16 16" fill="none" xmlns="http://www.w3.org/2000/svg">
<g id="vuesax/outline/search-normal">
<g id="search-normal">
<path id="Vector" d="M7.33337 13.8333C3.74671 13.8333 0.833374 10.92 0.833374 7.33334C0.833374 3.74668 3.74671 0.833344 7.33337 0.833344C10.92 0.833344 13.8334 3.74668 13.8334 7.33334C13.8334 10.92 10.92 13.8333 7.33337 13.8333ZM7.33337 1.83334C4.30004 1.83334 1.83337 4.30001 1.83337 7.33334C1.83337 10.3667 4.30004 12.8333 7.33337 12.8333C10.3667 12.8333 12.8334 10.3667 12.8334 7.33334C12.8334 4.30001 10.3667 1.83334 7.33337 1.83334Z" fill="white"/>
<path id="Vector_2" d="M13.4401 15.1933C13.3867 15.1933 13.3334 15.1867 13.2867 15.18C12.9734 15.14 12.4067 14.9267 12.0867 13.9733C11.9201 13.4733 11.9801 12.9733 12.2534 12.5933C12.5267 12.2133 12.9867 12 13.5134 12C14.1934 12 14.7267 12.26 14.9667 12.72C15.2067 13.18 15.1401 13.7667 14.7601 14.3333C14.2867 15.0467 13.7734 15.1933 13.4401 15.1933ZM13.0401 13.66C13.1534 14.0067 13.3134 14.18 13.4201 14.1933C13.5267 14.2067 13.7267 14.08 13.9334 13.78C14.1267 13.4933 14.1401 13.2867 14.0934 13.1933C14.0467 13.1 13.8601 13 13.5134 13C13.3067 13 13.1534 13.0667 13.0667 13.18C12.9867 13.2933 12.9734 13.4667 13.0401 13.66Z" fill="white"/>
</g>
</g>
</svg>
